<svg width="16" height="16" xmlns="http://www.w3.org/2000/svg"><path fill-rule="evenodd" clip-rule="evenodd" d="M4.834 2.5c0-.92.746-1.667 1.667-1.667h3c.92 0 1.666.746 1.666 1.667v.333h3.334a.667.667 0 010 1.333h-.834V12.5a2.667 2.667 0 01-2.666 2.666H5A2.667 2.667 0 012.334 12.5V4.166h-.833a.667.667 0 010-1.333h3.333V2.5zm1.333.333h3.667V2.5a.333.333 0 00-.333-.334h-3a.333.333 0 00-.334.334v.333zm-2.5 1.333V12.5c0 .736.597 1.333 1.334 1.333h6c.736 0 1.333-.597 1.333-1.333V4.166H3.667zm4.334 1.167c.368 0 .666.298.666.667v6a.667.667 0 01-1.333 0V6c0-.369.298-.667.667-.667z"/></svg>