<svg width="20" height="12" fill="none" xmlns="http://www.w3.org/2000/svg"><path d="M20 0H0v12h20V0z" fill="#B22234"/><path fill-rule="evenodd" clip-rule="evenodd" d="M20 1.745H0V.8h20v.945zM0 2.691h20v.945H0v-.945zm20 2.836H0v-.945h20v.945zM0 6.473h20v.945H0v-.945zm20 2.836H0v-.946h20v.946zm-20 .945h20v.946H0v-.946z" fill="#fff"/><path d="M9.12 0H0v6.462h9.12V0z" fill="#3C3B6E"/><path d="M.76.222L.975.89.408.477h.703L.542.89.76.222zM2.274.222l.217.668-.568-.413h.702L2.057.89l.217-.668zM3.789.222l.217.668-.569-.413h.703L3.572.89l.217-.668zM8.333.222L8.55.89 7.98.477h.703L8.116.89l.217-.668zM6.818.222l.217.668-.568-.413h.702L6.601.89l.217-.668zM5.303.222L5.52.89 4.952.477h.702L5.086.89l.217-.668zM.76 1.558l.216.668-.568-.413h.703l-.569.413.217-.668zM2.274 1.558l.217.668-.568-.413h.702l-.568.413.217-.668zM3.789 1.558l.217.668-.569-.413h.703l-.568.413.217-.668zM8.333 1.558l.217.668-.569-.413h.703l-.568.413.217-.668zM6.818 1.558l.217.668-.568-.413h.702l-.568.413.217-.668zM5.303 1.558l.217.668-.568-.413h.702l-.568.413.217-.668zM.76 2.893l.216.668-.568-.412h.703l-.569.412.217-.668zM2.274 2.893l.217.668-.568-.412h.702l-.568.412.217-.668zM3.789 2.893l.217.668-.569-.412h.703l-.568.412.217-.668zM8.333 2.893l.217.668-.569-.412h.703l-.568.412.217-.668zM6.818 2.893l.217.668-.568-.412h.702l-.568.412.217-.668zM5.303 2.893l.217.668-.568-.412h.702l-.568.412.217-.668zM.76 4.23l.216.667-.568-.412h.703l-.569.412.217-.668zM2.274 4.23l.217.667-.568-.412h.702l-.568.412.217-.668zM3.789 4.23l.217.667-.569-.412h.703l-.568.412.217-.668zM8.333 4.23l.217.667-.569-.412h.703l-.568.412.217-.668zM6.818 4.23l.217.667-.568-.412h.702l-.568.412.217-.668zM5.303 4.23l.217.667-.568-.412h.702l-.568.412.217-.668zM.76 5.565l.216.668-.568-.413h.703l-.569.413.217-.668zM2.274 5.565l.217.668-.568-.413h.702l-.568.413.217-.668zM3.789 5.565l.217.668-.569-.413h.703l-.568.413.217-.668zM8.333 5.565l.217.668-.569-.413h.703l-.568.413.217-.668zM6.818 5.565l.217.668-.568-.413h.702l-.568.413.217-.668zM5.303 5.565l.217.668-.568-.413h.702l-.568.413.217-.668zM1.514.89l.217.668-.569-.413h.703l-.568.413.217-.668zM3.028.89l.217.668-.568-.413h.702l-.568.413.217-.668zM4.543.89l.217.668-.568-.413h.702l-.568.413.217-.668zM7.572.89l.217.668-.568-.413h.702l-.568.413.217-.668zM6.058.89l.217.668-.569-.413h.703l-.569.413.218-.668zM1.514 2.226l.217.667-.569-.412h.703l-.568.412.217-.667zM3.028 2.226l.217.667-.568-.412h.702l-.568.412.217-.667zM4.543 2.226l.217.667-.568-.412h.702l-.568.412.217-.667zM7.572 2.226l.217.667-.568-.412h.702l-.568.412.217-.667zM6.058 2.226l.217.667-.569-.412h.703l-.569.412.218-.667zM1.514 3.561l.217.668-.569-.412h.703l-.568.412.217-.668zM3.028 3.561l.217.668-.568-.412h.702l-.568.412.217-.668zM4.543 3.561l.217.668-.568-.412h.702l-.568.412.217-.668zM7.572 3.561l.217.668-.568-.412h.702l-.568.412.217-.668zM6.058 3.561l.217.668-.569-.412h.703l-.569.412.218-.668zM1.514 4.897l.217.668-.569-.413h.703l-.568.413.217-.668zM3.028 4.897l.217.668-.568-.413h.702l-.568.413.217-.668zM4.543 4.897l.217.668-.568-.413h.702l-.568.413.217-.668zM7.572 4.897l.217.668-.568-.413h.702l-.568.413.217-.668zM6.058 4.897l.217.668-.569-.413h.703l-.569.413.218-.668z" fill="#fff"/></svg>