<?xml version="1.0" encoding="utf-8"?><svg viewBox="0 0 162 48" xmlns="http://www.w3.org/2000/svg" xmlns:xlink="http://www.w3.org/1999/xlink"><style>:root>svg{display:none}:root>svg:target{display:block}</style><svg viewBox="0 0 16 16" id="Facebook" xmlns="http://www.w3.org/2000/svg"><path d="M11.708.67L9.856.665c-2.08 0-3.424 1.417-3.424 3.61V5.94H4.57a.295.295 0 00-.29.299V8.65c0 .165.13.3.29.3h1.862v6.084c0 .165.13.299.291.299h2.429c.16 0 .291-.134.291-.3V8.95h2.177c.16 0 .291-.134.291-.299V6.24c0-.08-.03-.155-.084-.212a.287.287 0 00-.206-.087H9.443V4.529c0-.678.157-1.022 1.017-1.022h1.248c.16 0 .29-.135.29-.3V.968a.295.295 0 00-.29-.299z"/></svg><svg viewBox="0 0 16 16" id="Instagram" xmlns="http://www.w3.org/2000/svg"><path d="M14.654 5.254c-.031-.708-.146-1.195-.31-1.618-.169-.448-.43-.849-.77-1.182a3.281 3.281 0 00-1.18-.768c-.425-.164-.91-.28-1.618-.31-.714-.034-.94-.042-2.75-.042s-2.037.008-2.749.04c-.708.03-1.195.145-1.617.309-.448.17-.85.43-1.183.771a3.283 3.283 0 00-.768 1.18c-.164.425-.279.909-.31 1.617-.034.714-.042.94-.042 2.751 0 1.81.008 2.037.04 2.748.03.708.145 1.195.31 1.617.169.448.432.85.77 1.183.334.338.738.602 1.18.768.425.164.91.279 1.618.31.71.031.938.04 2.748.04 1.81 0 2.037-.008 2.748-.04.708-.031 1.195-.146 1.617-.31a3.41 3.41 0 001.951-1.95c.164-.425.279-.91.31-1.618.031-.711.04-.938.04-2.748 0-1.81-.004-2.037-.035-2.748zm-1.2 5.444c-.03.651-.139 1.003-.23 1.237a2.211 2.211 0 01-1.266 1.266c-.234.091-.588.2-1.237.23-.703.03-.914.038-2.693.038s-1.993-.008-2.693-.039c-.651-.028-1.003-.138-1.237-.23a2.051 2.051 0 01-.766-.497 2.073 2.073 0 01-.498-.765c-.09-.235-.2-.589-.229-1.238-.031-.703-.039-.914-.039-2.693s.008-1.992.04-2.693c.028-.651.137-1.003.228-1.237.107-.29.276-.552.5-.766a2.07 2.07 0 01.766-.498c.235-.09.589-.2 1.237-.229.704-.031.915-.039 2.694-.039 1.781 0 1.992.008 2.693.04.651.028 1.003.137 1.237.228.29.107.552.276.766.498.221.216.39.477.497.766.091.234.2.588.23 1.237.03.703.039.914.039 2.693 0 1.78-.008 1.988-.04 2.69z"/><path d="M8.025 4.577a3.426 3.426 0 10.002 6.852 3.426 3.426 0 00-.002-6.852zm0 5.647a2.222 2.222 0 11.001-4.445 2.222 2.222 0 010 4.445zM12.386 4.441a.8.8 0 11-1.6 0 .8.8 0 011.6 0z"/></svg><svg viewBox="0 0 16 16" id="Twitter" xmlns="http://www.w3.org/2000/svg"><path d="M15 3.849a5.935 5.935 0 01-1.65.433 2.786 2.786 0 001.263-1.52 5.948 5.948 0 01-1.825.667 2.924 2.924 0 00-2.096-.868C9.106 2.56 7.82 3.79 7.82 5.31c0 .215.026.425.075.626-2.387-.114-4.503-1.21-5.92-2.873a2.641 2.641 0 00-.388 1.382c0 .954.507 1.796 1.277 2.289a2.97 2.97 0 01-1.3-.345v.034c0 1.332.99 2.444 2.303 2.697a3.03 3.03 0 01-.757.096c-.185 0-.365-.018-.54-.051.365 1.093 1.425 1.888 2.682 1.91a5.926 5.926 0 01-3.567 1.175A6.37 6.37 0 011 12.212a8.382 8.382 0 004.402 1.237c5.283 0 8.171-4.19 8.171-7.823l-.01-.356A5.608 5.608 0 0015 3.849z"/></svg><svg viewBox="0 0 16 16" id="YouTube" xmlns="http://www.w3.org/2000/svg"><path fill-rule="evenodd" clip-rule="evenodd" d="M14.26 2.743a2.004 2.004 0 011.41 1.41c.343 1.252.33 3.862.33 3.862s0 2.596-.33 3.848a2.005 2.005 0 01-1.41 1.41c-1.252.33-6.26.33-6.26.33s-4.995 0-6.26-.343a2.005 2.005 0 01-1.41-1.41C0 10.611 0 8.002 0 8.002s0-2.597.33-3.849A2.046 2.046 0 011.74 2.73C2.992 2.4 8 2.4 8 2.4s5.008 0 6.26.343zm-3.69 5.258l-4.165 2.4V5.602L10.57 8z"/></svg><svg fill="none" viewBox="0 0 162 48" id="app-store" xmlns="http://www.w3.org/2000/svg"><path d="M156.322 48H5.678A5.676 5.676 0 010 42.324V5.676A5.676 5.676 0 015.678 0h150.644A5.675 5.675 0 01162 5.676v36.648A5.675 5.675 0 01156.322 48z" fill="#424551"/><path d="M160.938 42.324a4.58 4.58 0 01-4.59 4.587H5.705c-2.54 0-4.615-2.047-4.615-4.587V5.676a4.625 4.625 0 014.615-4.614h150.643a4.609 4.609 0 014.616 4.614l-.026 36.648z" fill="#424551"/><path d="M36.166 23.741c-.026-3.861 3.163-5.753 3.318-5.831-1.814-2.644-4.614-3.007-5.625-3.033-2.36-.259-4.64 1.426-5.86 1.426-1.218 0-3.084-1.4-5.08-1.348-2.567.052-4.978 1.53-6.3 3.836-2.723 4.717-.7 11.637 1.918 15.421 1.296 1.866 2.826 3.94 4.822 3.862 1.944-.078 2.67-1.244 5.03-1.244 2.333 0 3.007 1.244 5.055 1.192 2.1-.026 3.422-1.866 4.666-3.758 1.504-2.125 2.1-4.25 2.126-4.354 0 0-4.018-1.53-4.07-6.169zm-3.837-11.378c1.037-1.322 1.763-3.084 1.556-4.898-1.53.078-3.422 1.062-4.511 2.332-.96 1.14-1.841 2.981-1.608 4.717 1.711.13 3.474-.855 4.563-2.15z" fill="#fff"/><path d="M156.322 0h-80.69l31.607 48h49.083A5.675 5.675 0 00162 42.324V5.676A5.675 5.675 0 00156.322 0z" fill="url(#epaint0_linear_2677:5745)"/><path d="M64.432 37.815h-2.723l-1.503-4.691H55.02l-1.426 4.69h-2.645l5.134-15.965h3.19l5.159 15.966zm-4.667-6.661l-1.348-4.173c-.156-.415-.415-1.426-.804-3.007h-.052c-.156.674-.415 1.685-.752 3.007l-1.322 4.173h4.278zm17.864.751c0 1.97-.544 3.5-1.607 4.64-.96 1.01-2.126 1.529-3.552 1.529-1.53 0-2.62-.544-3.293-1.633v6.039h-2.541V30.065c0-1.218-.026-2.488-.104-3.784h2.256l.156 1.814h.051c.856-1.373 2.152-2.073 3.89-2.073 1.348 0 2.489.544 3.396 1.607.908 1.114 1.348 2.54 1.348 4.276zm-2.592.104c0-1.114-.26-2.047-.752-2.773-.545-.752-1.297-1.14-2.23-1.14-.622 0-1.193.207-1.711.621-.519.415-.856.96-1.012 1.66-.077.258-.103.518-.13.777v1.918c0 .829.26 1.555.779 2.125.518.57 1.192.855 1.996.855.96 0 1.711-.363 2.256-1.114.544-.726.804-1.71.804-2.929zm15.868-.104c0 1.97-.545 3.5-1.608 4.64-.96 1.01-2.126 1.529-3.552 1.529-1.53 0-2.619-.544-3.293-1.633v6.039h-2.567V30.065c0-1.218-.026-2.488-.104-3.784h2.256l.156 1.814h.052c.855-1.373 2.152-2.073 3.889-2.073 1.348 0 2.489.544 3.397 1.607.907 1.114 1.374 2.54 1.374 4.276zm-2.619.104c0-1.114-.26-2.047-.752-2.773-.544-.752-1.296-1.14-2.23-1.14-.622 0-1.192.207-1.711.621-.519.415-.856.96-1.011 1.66-.078.31-.13.57-.13.777v1.918c0 .829.26 1.555.778 2.125.519.57 1.193.855 1.996.855.96 0 1.712-.363 2.256-1.114.545-.726.804-1.71.804-2.929zm17.424 1.322c0 1.348-.467 2.462-1.426 3.317-1.037.933-2.489 1.4-4.356 1.4-1.712 0-3.086-.337-4.149-.985l.597-2.125c1.114.674 2.36.985 3.707.985.96 0 1.712-.208 2.256-.648.545-.44.804-1.011.804-1.737 0-.648-.233-1.192-.674-1.633-.441-.44-1.167-.855-2.204-1.244-2.8-1.036-4.2-2.566-4.2-4.587 0-1.322.492-2.385 1.477-3.214.986-.83 2.308-1.244 3.916-1.244 1.452 0 2.67.26 3.629.752l-.648 2.073c-.907-.492-1.918-.726-3.059-.726-.908 0-1.608.233-2.126.674-.415.389-.649.881-.649 1.452 0 .622.234 1.166.726 1.555.415.388 1.193.777 2.334 1.244 1.374.544 2.385 1.192 3.034 1.944.7.725 1.011 1.632 1.011 2.747zm8.478-5.106h-2.826v5.598c0 1.426.493 2.126 1.504 2.126.467 0 .83-.026 1.141-.13l.078 1.944c-.493.181-1.167.285-1.997.285-1.011 0-1.789-.311-2.359-.933-.571-.622-.856-1.659-.856-3.11v-5.806h-1.685v-1.918h1.685v-2.1l2.515-.75v2.876h2.826l-.026 1.918zm12.705 3.732c0 1.763-.518 3.214-1.53 4.354-1.063 1.167-2.463 1.763-4.226 1.763-1.685 0-3.034-.57-4.045-1.685-1.011-1.114-1.504-2.54-1.504-4.25 0-1.789.519-3.24 1.556-4.38 1.037-1.14 2.437-1.711 4.175-1.711 1.685 0 3.059.57 4.07 1.685 1.012 1.088 1.504 2.514 1.504 4.224zm-2.645.052c0-1.063-.233-1.97-.674-2.721-.544-.907-1.296-1.374-2.307-1.374-1.037 0-1.815.466-2.36 1.374-.466.751-.674 1.684-.674 2.773 0 1.063.233 1.97.674 2.721.545.907 1.323 1.374 2.334 1.374.985 0 1.737-.467 2.307-1.4.467-.777.7-1.684.7-2.747zm10.968-3.473a4.22 4.22 0 00-.804-.078c-.907 0-1.607.337-2.074 1.011-.415.596-.648 1.348-.648 2.28v6.04h-2.567v-7.88c0-1.217-.026-2.41-.078-3.628h2.23l.104 2.203h.078c.259-.751.7-1.374 1.27-1.814.545-.389 1.193-.622 1.841-.622.233 0 .441.026.648.052v2.436zm11.46 2.98c0 .39-.025.778-.103 1.167h-7.675c.026 1.14.389 2.022 1.115 2.618.648.544 1.478.803 2.515.803 1.141 0 2.178-.181 3.111-.544l.389 1.762c-1.089.467-2.385.7-3.863.7-1.789 0-3.189-.518-4.2-1.581-1.012-1.063-1.53-2.462-1.53-4.225 0-1.736.467-3.188 1.426-4.328.985-1.244 2.333-1.84 4.019-1.84 1.659 0 2.93.622 3.759 1.84.7.985 1.037 2.177 1.037 3.629zm-2.437-.673c.026-.752-.155-1.426-.492-1.97-.441-.726-1.115-1.063-2.049-1.063-.829 0-1.53.337-2.048 1.037-.415.544-.674 1.218-.752 1.996h5.341zM54.294 16.199c-.7 0-1.322-.026-1.84-.104V8.372a15.387 15.387 0 012.177-.156c2.93 0 4.278 1.452 4.278 3.81 0 2.696-1.607 4.173-4.615 4.173zm.415-6.998a5.73 5.73 0 00-1.011.078v5.857c.155.026.44.026.855.026 1.919 0 3.008-1.088 3.008-3.136 0-1.814-.985-2.825-2.852-2.825zm8.4 7.05c-1.659 0-2.722-1.244-2.722-2.903 0-1.736 1.09-2.98 2.826-2.98 1.634 0 2.723 1.166 2.723 2.902 0 1.737-1.141 2.98-2.826 2.98zm.052-4.976c-.907 0-1.503.855-1.503 2.047 0 1.167.596 2.022 1.477 2.022.882 0 1.478-.907 1.478-2.048.026-1.166-.57-2.021-1.452-2.021zm12.213-.804l-1.763 5.65h-1.167l-.726-2.462a21.206 21.206 0 01-.467-1.84h-.026c-.104.622-.26 1.244-.467 1.84l-.777 2.462h-1.167l-1.66-5.65h1.297l.648 2.696c.156.648.285 1.244.389 1.814h.026c.104-.467.233-1.063.467-1.814l.803-2.696h1.037l.778 2.644c.182.648.337 1.27.467 1.866h.026c.078-.57.207-1.192.389-1.866l.7-2.644h1.193zm6.508 5.65h-1.245v-3.24c0-1.01-.389-1.503-1.14-1.503-.753 0-1.271.648-1.271 1.374v3.37h-1.27v-4.044c0-.492 0-1.037-.053-1.607h1.115l.052.881h.026c.337-.596 1.037-.984 1.79-.984 1.192 0 1.97.907 1.97 2.384l.026 3.37zm3.474 0h-1.27V7.854h1.27v8.267zm4.59.13c-1.66 0-2.723-1.244-2.723-2.903 0-1.736 1.089-2.98 2.826-2.98 1.634 0 2.722 1.166 2.722 2.902 0 1.737-1.14 2.98-2.826 2.98zm.051-4.976c-.907 0-1.504.855-1.504 2.047 0 1.167.597 2.022 1.478 2.022.882 0 1.478-.907 1.478-2.048 0-1.166-.57-2.021-1.452-2.021zm7.727 4.846l-.104-.648h-.026c-.389.519-.933.778-1.66.778-1.01 0-1.736-.7-1.736-1.659 0-1.4 1.218-2.125 3.318-2.125v-.104c0-.751-.389-1.114-1.166-1.114-.57 0-1.037.13-1.478.415l-.26-.83c.519-.337 1.167-.492 1.945-.492 1.478 0 2.23.777 2.23 2.332v2.074c0 .57.026 1.01.078 1.347l-1.141.026zm-.182-2.825c-1.4 0-2.1.337-2.1 1.14 0 .597.363.882.856.882.648 0 1.244-.493 1.244-1.14v-.882zm7.338 2.825l-.052-.907h-.026c-.363.674-.959 1.037-1.815 1.037-1.374 0-2.385-1.192-2.385-2.877 0-1.762 1.037-3.006 2.489-3.006.752 0 1.296.259 1.608.777h.025V7.854h1.271v6.738c0 .544.026 1.063.052 1.53h-1.167zm-.181-3.317c0-.804-.519-1.478-1.323-1.478-.933 0-1.504.83-1.504 1.996 0 1.14.597 1.918 1.478 1.918.804 0 1.349-.7 1.349-1.503v-.933zm9.256 3.447c-1.659 0-2.723-1.244-2.723-2.903 0-1.736 1.089-2.98 2.827-2.98 1.633 0 2.722 1.166 2.722 2.902 0 1.737-1.141 2.98-2.826 2.98zm.052-4.976c-.908 0-1.478.855-1.478 2.047 0 1.167.596 2.022 1.478 2.022.881 0 1.478-.907 1.478-2.048-.026-1.166-.597-2.021-1.478-2.021zm9.541 4.846h-1.27v-3.24c0-1.01-.389-1.503-1.141-1.503s-1.244.648-1.244 1.374v3.37h-1.271v-4.044c0-.492 0-1.037-.052-1.607h1.115l.052.881h.026c.337-.596 1.037-.984 1.789-.984 1.193 0 1.971.907 1.971 2.384v3.37h.025zm8.453-4.717h-1.374v2.748c0 .7.233 1.036.726 1.036.233 0 .415-.026.57-.052l.026.96c-.233.103-.57.129-.985.129-.985 0-1.582-.544-1.582-1.97v-2.85h-.829v-.934h.829V9.435l1.245-.363v1.4h1.374v.932zm6.664 4.717h-1.245v-3.213c0-1.011-.389-1.53-1.141-1.53-.648 0-1.27.441-1.27 1.348v3.421h-1.245V7.854h1.245v3.395h.026c.389-.622.959-.933 1.711-.933 1.193 0 1.919.933 1.919 2.41v3.395zm6.819-2.514h-3.786c.026 1.063.726 1.685 1.789 1.685.571 0 1.063-.104 1.53-.26l.207.882c-.544.233-1.166.337-1.892.337-1.763 0-2.826-1.115-2.826-2.851s1.063-3.032 2.67-3.032c1.452 0 2.36 1.062 2.36 2.695 0 .155 0 .337-.052.544zm-1.141-.907c0-.881-.441-1.503-1.245-1.503-.726 0-1.296.622-1.374 1.503h2.619z" fill="#fff"/><defs><linearGradient id="epaint0_linear_2677:5745" x1="118.823" y1="48.113" x2="118.823" y2="-644.442" gradientUnits="userSpaceOnUse"><stop stop-color="#1A1A1A" stop-opacity=".1"/><stop offset=".123" stop-color="#212121" stop-opacity=".151"/><stop offset=".308" stop-color="#353535" stop-opacity=".227"/><stop offset=".532" stop-color="#575757" stop-opacity=".318"/><stop offset=".783" stop-color="#858585" stop-opacity=".421"/><stop offset="1" stop-color="#B3B3B3" stop-opacity=".51"/></linearGradient></defs></svg><svg fill="none" viewBox="0 0 10 8" id="arrow-down" xmlns="http://www.w3.org/2000/svg"><path d="M8.722 2.946L5.476 6.894a1.264 1.264 0 01-.405.33 1.06 1.06 0 01-.479.116 1.06 1.06 0 01-.478-.116 1.264 1.264 0 01-.405-.33L.462 2.946C-.328 1.986.237.34 1.352.34h6.493c1.115 0 1.667 1.646.877 2.606z" fill="#000"/></svg><svg viewBox="0 0 18 12" id="arrow-left" xmlns="http://www.w3.org/2000/svg"><path fill-rule="evenodd" clip-rule="evenodd" d="M6.207 11.207a1 1 0 01-1.414 0l-4.5-4.5a1 1 0 010-1.414l4.5-4.5a1 1 0 011.414 1.414L3.414 5H17a1 1 0 110 2H3.414l2.793 2.793a1 1 0 010 1.414z"/></svg><svg viewBox="0 0 18 12" id="arrow-right" xmlns="http://www.w3.org/2000/svg"><path fill-rule="evenodd" clip-rule="evenodd" d="M11.793.793a1 1 0 011.414 0l4.5 4.5a1 1 0 010 1.414l-4.5 4.5a1 1 0 01-1.414-1.414L14.586 7H1a1 1 0 010-2h13.586l-2.793-2.793a1 1 0 010-1.414z"/></svg><svg fill="none" viewBox="0 0 9 7" id="arrow-up" xmlns="http://www.w3.org/2000/svg"><path d="M.372 4.394L3.618.446c.116-.142.254-.254.405-.33A1.06 1.06 0 014.502 0c.164 0 .326.04.478.116.151.076.29.188.405.33l3.246 3.948c.79.96.226 2.606-.89 2.606H1.25C.133 7-.418 5.354.372 4.394z" fill="#000"/></svg><svg viewBox="0 0 22 20" id="card" xmlns="http://www.w3.org/2000/svg"><path fill-rule="evenodd" clip-rule="evenodd" d="M3.25 2.75a1 1 0 00-1 1v1.5h17.5v-1.5a1 1 0 00-1-1H3.25zm16.5 4.5H2.25v2.5h17.5v-2.5zm0 4.5H2.25v4.5a1 1 0 001 1h15.5a1 1 0 001-1v-4.5zm-19.5-8a3 3 0 013-3h15.5a3 3 0 013 3v12.5a3 3 0 01-3 3H3.25a3 3 0 01-3-3V3.75z"/></svg><svg viewBox="0 0 21 20" id="cart" xmlns="http://www.w3.org/2000/svg"><path fill-rule="evenodd" clip-rule="evenodd" d="M2.88 2.758a6.884 6.884 0 00-.447-.008H.917a.917.917 0 010-1.833h1.542c.197 0 .392 0 .559.013.185.014.401.046.625.146.314.14.582.366.774.652.137.203.206.41.252.59.04.163.074.355.108.548l.004.026L5 4.148l11.93.353c.466.014.87.026 1.203.062.352.04.7.112 1.035.29.507.27.916.692 1.171 1.207.169.34.23.69.26 1.042.026.334.026.738.026 1.206v.068c0 .44 0 .82-.025 1.136-.026.336-.083.669-.237.995A2.75 2.75 0 0119.28 11.7c-.31.184-.636.273-.967.332-.312.054-.691.091-1.129.134l-8.923.863c-.448.043-.837.081-1.16.087-.344.006-.689-.02-1.034-.148a2.75 2.75 0 01-1.289-.982c-.214-.3-.331-.624-.417-.957-.08-.314-.147-.699-.224-1.142l-1.162-6.68a6.894 6.894 0 00-.086-.449h-.01zM5.32 5.99l.617 3.548c.085.487.14.8.2 1.035.058.224.103.305.132.346.107.15.257.264.43.327.047.018.137.04.369.036a14.93 14.93 0 001.05-.082l8.856-.857c.48-.046.788-.077 1.022-.118.222-.04.305-.077.348-.102a.918.918 0 00.36-.398c.021-.044.051-.13.069-.356.018-.236.019-.545.019-1.028 0-.512-.001-.841-.021-1.093-.02-.24-.052-.33-.075-.376a.916.916 0 00-.39-.402c-.044-.023-.134-.059-.373-.085a15.34 15.34 0 00-1.093-.054l-11.52-.34zM7.792 16.042a.917.917 0 100 1.833.917.917 0 000-1.833zm-2.75.917a2.75 2.75 0 115.5 0 2.75 2.75 0 01-5.5 0zM16.5 16.042a.917.917 0 100 1.833.917.917 0 000-1.833zm-2.75.917a2.75 2.75 0 115.5 0 2.75 2.75 0 01-5.5 0z"/></svg><svg viewBox="0 0 16 16" id="close" xmlns="http://www.w3.org/2000/svg"><path fill-rule="evenodd" clip-rule="evenodd" d="M.293.293a1 1 0 011.414 0L8 6.586 14.293.293a1 1 0 111.414 1.414L9.414 8l6.293 6.293a1 1 0 01-1.414 1.414L8 9.414l-6.293 6.293a1 1 0 01-1.414-1.414L6.586 8 .293 1.707a1 1 0 010-1.414z"/></svg><svg viewBox="0 0 16 16" id="delete" xmlns="http://www.w3.org/2000/svg"><path fill-rule="evenodd" clip-rule="evenodd" d="M4.834 2.5c0-.92.746-1.667 1.667-1.667h3c.92 0 1.666.746 1.666 1.667v.333h3.334a.667.667 0 010 1.333h-.834V12.5a2.667 2.667 0 01-2.666 2.666H5A2.667 2.667 0 012.334 12.5V4.166h-.833a.667.667 0 010-1.333h3.333V2.5zm1.333.333h3.667V2.5a.333.333 0 00-.333-.334h-3a.333.333 0 00-.334.334v.333zm-2.5 1.333V12.5c0 .736.597 1.333 1.334 1.333h6c.736 0 1.333-.597 1.333-1.333V4.166H3.667zm4.334 1.167c.368 0 .666.298.666.667v6a.667.667 0 01-1.333 0V6c0-.369.298-.667.667-.667z"/></svg><svg viewBox="0 0 20 18" id="favorite" xmlns="http://www.w3.org/2000/svg"><path fill-rule="evenodd" clip-rule="evenodd" d="M10 15.59c-3.833-2.184-5.971-4.353-7.005-6.235-1.058-1.927-.965-3.55-.378-4.702 1.206-2.367 4.638-3.124 6.728-.48L10 5l.654-.827c2.09-2.644 5.522-1.887 6.729.48.587 1.152.68 2.775-.379 4.701-1.034 1.883-3.171 4.053-7.004 6.235zm0-13.168C7.057-.373 2.72.782 1.131 3.897c-.871 1.709-.883 3.918.402 6.26 1.275 2.32 3.815 4.77 8.062 7.117l.403.223.403-.223c4.247-2.347 6.788-4.797 8.062-7.117 1.286-2.342 1.274-4.551.403-6.26C17.279.782 12.94-.373 9.999 2.422z"/></svg><svg viewBox="0 0 16 14" id="footer-heart" xmlns="http://www.w3.org/2000/svg"><path fill-rule="evenodd" clip-rule="evenodd" d="M8 12.271C4.932 10.525 3.222 8.79 2.395 7.284c-.846-1.542-.772-2.84-.303-3.761.966-1.894 3.71-2.5 5.383-.384L8 3.8l.523-.661c1.673-2.116 4.418-1.51 5.383.384.47.921.544 2.22-.303 3.76-.826 1.507-2.537 3.242-5.603 4.988zM8 1.737C5.645-.498 2.175.426.904 2.917.208 4.285.2 6.052 1.228 7.925c1.019 1.857 3.052 3.817 6.449 5.694l.322.179.323-.179c3.397-1.877 5.43-3.837 6.45-5.694 1.028-1.873 1.018-3.64.321-5.008C13.823.425 10.353-.498 8 1.737z"/></svg><svg viewBox="0 0 14 14" id="google" xmlns="http://www.w3.org/2000/svg"><path d="M7.14 6.003h6.584c.072.405.109.793.109 1.162 0 1.314-.276 2.487-.827 3.519a5.966 5.966 0 01-2.356 2.42c-1.02.58-2.19.872-3.51.872-.95 0-1.855-.184-2.715-.55A6.972 6.972 0 012.2 11.941 6.973 6.973 0 01.715 9.717 6.856 6.856 0 01.166 7c0-.95.183-1.855.55-2.715A6.974 6.974 0 012.2 2.061 6.974 6.974 0 014.425.577 6.856 6.856 0 017.14.027c1.816 0 3.375.609 4.677 1.826L9.919 3.678c-.745-.72-1.671-1.08-2.779-1.08-.78 0-1.503.196-2.166.59A4.35 4.35 0 003.4 4.79a4.365 4.365 0 00-.581 2.211c0 .8.193 1.537.58 2.212a4.35 4.35 0 001.576 1.602c.663.394 1.385.59 2.166.59a4.63 4.63 0 001.453-.217c.442-.146.805-.327 1.09-.545.284-.218.533-.466.744-.745a3.47 3.47 0 00.468-.79c.1-.248.168-.484.204-.708H7.14V6.003z"/></svg><svg fill="none" viewBox="0 0 162 48" id="google-play" xmlns="http://www.w3.org/2000/svg"><g clip-path="url(#qclip0_2677:5751)"><path d="M156 47.991H6c-3.36 0-6-2.64-6-5.998V6.006C0 2.646 2.64.008 6 .008h150c3.36 0 6 2.639 6 5.998v35.987c0 3.359-2.64 5.998-6 5.998z" fill="#424551"/><path d="M156 .967c2.76 0 5.04 2.28 5.04 5.039v35.987c0 2.76-2.28 5.038-5.04 5.038H6c-2.76 0-5.04-2.279-5.04-5.038V6.006C.96 3.246 3.24.967 6 .967h150zm0-.96H6c-3.36 0-6 2.76-6 5.999v35.987c0 3.359 2.64 5.998 6 5.998h150c3.36 0 6-2.64 6-5.998V6.006c0-3.24-2.64-5.998-6-5.998z" fill="#424551"/><path d="M56.88 12.244c0 .96-.24 1.8-.84 2.399-.72.72-1.56 1.08-2.64 1.08s-1.92-.36-2.64-1.08c-.72-.72-1.08-1.56-1.08-2.64 0-1.079.36-1.918 1.08-2.638.72-.72 1.56-1.08 2.64-1.08.48 0 .96.12 1.44.36s.84.48 1.08.84l-.6.6c-.48-.6-1.08-.84-1.92-.84-.72 0-1.44.24-1.92.84-.6.48-.84 1.2-.84 2.039 0 .84.24 1.56.84 2.04.6.479 1.2.839 1.92.839.84 0 1.44-.24 2.04-.84.36-.36.6-.84.6-1.44H53.4v-.96h3.48v.48zm5.52-3h-3.24v2.28h3v.84h-3v2.279h3.24v.96h-4.2V8.405h4.2v.84zm3.96 6.359h-.96V9.245h-2.04v-.84h5.04v.84h-2.04v6.358zm5.52 0V8.405h.96v7.198h-.96zm5.04 0h-.96V9.245h-2.04v-.84h4.92v.84H76.8v6.358h.12zm11.4-.96c-.72.72-1.56 1.08-2.64 1.08s-1.92-.36-2.64-1.08c-.72-.72-1.08-1.56-1.08-2.64 0-1.079.36-1.918 1.08-2.638.72-.72 1.56-1.08 2.64-1.08s1.92.36 2.64 1.08c.72.72 1.08 1.56 1.08 2.639 0 1.08-.36 1.92-1.08 2.639zm-4.56-.6c.48.48 1.2.84 1.92.84s1.44-.24 1.92-.84c.48-.48.84-1.2.84-2.04 0-.839-.24-1.559-.84-2.038-.48-.48-1.2-.84-1.92-.84s-1.44.24-1.92.84c-.48.48-.84 1.2-.84 2.039 0 .84.24 1.56.84 2.04zm6.96 1.56V8.405h1.08l3.48 5.638V8.405h.96v7.198h-.96l-3.72-5.878v5.878h-.84zM81.72 26.16c-2.88 0-5.16 2.159-5.16 5.158a5.12 5.12 0 005.16 5.158c2.88 0 5.16-2.16 5.16-5.158 0-3.12-2.28-5.159-5.16-5.159zm0 8.157c-1.56 0-2.88-1.32-2.88-3.12 0-1.799 1.32-3.118 2.88-3.118 1.56 0 2.88 1.2 2.88 3.119 0 1.8-1.32 3.119-2.88 3.119zM70.56 26.16c-2.88 0-5.16 2.159-5.16 5.158a5.12 5.12 0 005.16 5.158c2.88 0 5.16-2.16 5.16-5.158 0-3.12-2.28-5.159-5.16-5.159zm0 8.157c-1.56 0-2.88-1.32-2.88-3.12 0-1.799 1.32-3.118 2.88-3.118 1.56 0 2.88 1.2 2.88 3.119 0 1.8-1.32 3.119-2.88 3.119zm-13.32-6.598v2.16h5.16c-.12 1.199-.6 2.159-1.2 2.758-.72.72-1.92 1.56-3.96 1.56-3.24 0-5.64-2.52-5.64-5.758 0-3.24 2.52-5.758 5.64-5.758 1.68 0 3 .72 3.96 1.56l1.56-1.56c-1.32-1.2-3-2.16-5.4-2.16-4.32 0-8.04 3.6-8.04 7.918s3.72 7.917 8.04 7.917c2.4 0 4.08-.72 5.52-2.28 1.44-1.439 1.92-3.478 1.92-5.038 0-.48 0-.96-.12-1.319h-7.44zm54.48 1.68c-.48-1.2-1.68-3.24-4.32-3.24-2.64 0-4.8 2.04-4.8 5.159 0 2.879 2.16 5.158 5.04 5.158 2.28 0 3.72-1.44 4.2-2.28l-1.68-1.199c-.6.84-1.32 1.44-2.52 1.44s-1.92-.48-2.52-1.56l6.84-2.879-.24-.6zm-6.96 1.679c0-1.92 1.56-3 2.64-3 .84 0 1.68.48 1.92 1.08l-4.56 1.92zm-5.64 4.918h2.28V21.001h-2.28v14.995zm-3.6-8.757c-.6-.6-1.56-1.2-2.76-1.2-2.52 0-4.92 2.28-4.92 5.159s2.28 5.038 4.92 5.038c1.2 0 2.16-.6 2.64-1.2h.12v.72c0 1.92-1.08 3-2.76 3-1.32 0-2.28-.96-2.52-1.8l-1.92.84c.6 1.319 2.04 2.998 4.56 2.998 2.64 0 4.8-1.56 4.8-5.278V26.4h-2.16v.84zm-2.64 7.078c-1.56 0-2.88-1.32-2.88-3.12 0-1.799 1.32-3.118 2.88-3.118 1.56 0 2.76 1.32 2.76 3.119 0 1.8-1.2 3.119-2.76 3.119zM122.16 21h-5.4v14.995h2.28v-5.638h3.12c2.52 0 4.92-1.8 4.92-4.678 0-2.88-2.4-4.679-4.92-4.679zm.12 7.198h-3.24V23.04h3.24c1.68 0 2.64 1.44 2.64 2.519-.12 1.32-1.08 2.639-2.64 2.639zm13.8-2.16c-1.68 0-3.36.72-3.96 2.28l2.04.84c.48-.84 1.2-1.08 2.04-1.08 1.2 0 2.28.72 2.4 1.92v.12c-.36-.24-1.32-.6-2.28-.6-2.16 0-4.32 1.199-4.32 3.358 0 2.04 1.8 3.359 3.72 3.359 1.56 0 2.28-.72 2.88-1.44h.12v1.2h2.16v-5.758c-.24-2.639-2.28-4.198-4.8-4.198zm-.24 8.278c-.72 0-1.8-.36-1.8-1.32 0-1.2 1.32-1.56 2.4-1.56.96 0 1.44.24 2.04.48-.24 1.44-1.44 2.4-2.64 2.4zm12.6-7.918l-2.52 6.478h-.12l-2.64-6.478h-2.4l3.96 9.117-2.28 5.038h2.28l6.12-14.155h-2.4zm-20.16 9.597h2.28V21.001h-2.28v14.995z" fill="#fff"/><path d="M12.48 9.006c-.36.36-.48.96-.48 1.68v26.51c0 .72.24 1.32.6 1.68l.12.12L27.6 24.12v-.24L12.48 9.006z" fill="url(#qpaint0_linear_2677:5751)"/><path d="M32.4 29.157l-4.92-4.918v-.36l4.92-4.918.12.12 5.88 3.359c1.68.96 1.68 2.519 0 3.479l-6 3.238z" fill="url(#qpaint1_linear_2677:5751)"/><path d="M32.52 29.038L27.48 24l-15 14.995c.6.6 1.44.6 2.52.12l17.52-10.077z" fill="url(#qpaint2_linear_2677:5751)"/><path d="M32.52 18.962L15 9.006c-1.08-.6-1.92-.48-2.52.12L27.48 24l5.04-5.038z" fill="url(#qpaint3_linear_2677:5751)"/><path opacity=".2" d="M32.4 28.918L15 38.755c-.96.6-1.8.48-2.4 0l-.12.12.12.12c.6.48 1.44.6 2.4 0l17.4-10.077z" fill="#424551"/><path opacity=".2" d="M12.48 38.755c-.36-.36-.48-.96-.48-1.68v.12c0 .72.24 1.32.6 1.68v-.12h-.12zM38.4 25.559l-6 3.36.12.12 5.88-3.36c.84-.48 1.2-1.08 1.2-1.679 0 .6-.48 1.08-1.2 1.56z" fill="#424551"/><path opacity=".2" d="M15 9.125l23.4 13.316c.72.48 1.2.96 1.2 1.559 0-.6-.36-1.2-1.2-1.68L15 9.006c-1.68-.96-3-.24-3 1.68v.12c0-1.8 1.32-2.64 3-1.68z" fill="#fff"/></g><defs><linearGradient id="qpaint0_linear_2677:5751" x1="26.16" y1="10.457" x2="6.027" y2="30.596" gradientUnits="userSpaceOnUse"><stop stop-color="#00A0FF"/><stop offset=".007" stop-color="#00A1FF"/><stop offset=".26" stop-color="#00BEFF"/><stop offset=".512" stop-color="#00D2FF"/><stop offset=".76" stop-color="#00DFFF"/><stop offset="1" stop-color="#00E3FF"/></linearGradient><linearGradient id="qpaint1_linear_2677:5751" x1="40.601" y1="24" x2="11.565" y2="24" gradientUnits="userSpaceOnUse"><stop stop-color="#FFE000"/><stop offset=".409" stop-color="#FFBD00"/><stop offset=".775" stop-color="orange"/><stop offset="1" stop-color="#FF9C00"/></linearGradient><linearGradient id="qpaint2_linear_2677:5751" x1="29.793" y1="26.754" x2="2.493" y2="54.064" gradientUnits="userSpaceOnUse"><stop stop-color="#FF3A44"/><stop offset="1" stop-color="#C31162"/></linearGradient><linearGradient id="qpaint3_linear_2677:5751" x1="8.757" y1=".22" x2="20.948" y2="12.415" gradientUnits="userSpaceOnUse"><stop stop-color="#32A071"/><stop offset=".069" stop-color="#2DA771"/><stop offset=".476" stop-color="#15CF74"/><stop offset=".801" stop-color="#06E775"/><stop offset="1" stop-color="#00F076"/></linearGradient><clipPath id="qclip0_2677:5751"><path fill="#fff" d="M0 0h162v48H0z"/></clipPath></defs></svg><svg viewBox="0 0 21 20" id="inst" xmlns="http://www.w3.org/2000/svg"><path d="M19.98 5.88c-.046-1.063-.218-1.793-.464-2.426a4.88 4.88 0 00-1.157-1.774 4.922 4.922 0 00-1.77-1.153C15.952.281 15.226.11 14.163.063 13.093.012 12.753 0 10.037 0 7.322 0 6.982.012 5.915.059 4.853.105 4.122.277 3.49.523A4.88 4.88 0 001.715 1.68 4.924 4.924 0 00.563 3.45C.316 4.087.145 4.813.098 5.876c-.051 1.07-.063 1.41-.063 4.126 0 2.715.012 3.055.059 4.122.047 1.063.219 1.793.465 2.426a4.932 4.932 0 001.156 1.774c.5.508 1.106.902 1.77 1.152.637.247 1.364.419 2.426.465 1.067.047 1.407.059 4.122.059 2.716 0 3.056-.012 4.122-.059 1.063-.046 1.793-.218 2.426-.464a5.116 5.116 0 002.927-2.927c.246-.637.418-1.364.465-2.426.047-1.067.058-1.407.058-4.122s-.004-3.055-.05-4.122zm-1.8 8.166c-.044.977-.208 1.504-.345 1.856a3.317 3.317 0 01-1.898 1.898c-.352.137-.883.301-1.856.344-1.055.047-1.371.059-4.04.059-2.668 0-2.989-.012-4.04-.059-.977-.043-1.504-.207-1.856-.344a3.077 3.077 0 01-1.148-.746 3.11 3.11 0 01-.747-1.148c-.136-.352-.3-.883-.343-1.856-.047-1.055-.059-1.372-.059-4.04 0-2.669.012-2.99.059-4.04.043-.977.207-1.504.343-1.856A3.04 3.04 0 013 2.965a3.105 3.105 0 011.15-.746c.35-.137.882-.3 1.855-.344 1.055-.046 1.372-.058 4.04-.058 2.672 0 2.989.012 4.04.058.977.043 1.504.207 1.856.344.433.16.828.414 1.148.746.332.325.586.715.747 1.15.136.35.3.882.343 1.855.047 1.055.059 1.371.059 4.04 0 2.668-.012 2.98-.059 4.036z"/><path d="M10.037 4.864A5.139 5.139 0 004.9 10.002a5.139 5.139 0 105.138-5.138zm0 8.47a3.333 3.333 0 11.001-6.666 3.333 3.333 0 010 6.667zM16.578 4.661a1.2 1.2 0 11-2.4 0 1.2 1.2 0 012.4 0z"/></svg><svg viewBox="0 0 14 14" id="linkedin" xmlns="http://www.w3.org/2000/svg"><path d="M13.664 13.666h.003v-4.89c0-2.392-.515-4.235-3.311-4.235-1.345 0-2.247.738-2.615 1.437H7.7V4.764h-2.65v8.902h2.76V9.258c0-1.16.22-2.283 1.657-2.283 1.416 0 1.438 1.325 1.438 2.357v4.334h2.758zM.554 4.765h2.764v8.901H.554V4.765zM1.935.333C1.051.333.334 1.05.334 1.934S1.051 3.55 1.935 3.55s1.601-.732 1.601-1.616c0-.884-.718-1.601-1.6-1.601z"/></svg><svg viewBox="0 0 15 13" id="pass" xmlns="http://www.w3.org/2000/svg"><path d="M1.76 3.679c1.803-1.504 3.878-2.346 6.073-2.346 2.194 0 4.27.842 6.073 2.346a.667.667 0 00.854-1.024C12.755.982 10.386 0 7.833 0S2.91.982.906 2.655a.667.667 0 10.854 1.024z" fill="#424551"/><path fill-rule="evenodd" clip-rule="evenodd" d="M2.733 4.46c1.2-1.013 2.91-1.96 4.85-1.96 1.94 0 3.65.947 4.85 1.96.604.51 1.1 1.054 1.45 1.54.174.242.32.48.425.7.096.203.191.459.191.717 0 .257-.095.513-.191.716-.105.22-.25.458-.426.7a8.856 8.856 0 01-1.45 1.541c-1.199 1.012-2.909 1.96-4.85 1.96-1.94 0-3.65-.948-4.849-1.96a8.852 8.852 0 01-1.45-1.54 4.63 4.63 0 01-.425-.701C.76 7.93.666 7.674.666 7.417c0-.258.095-.514.192-.716.105-.221.25-.459.425-.701.35-.486.846-1.03 1.45-1.54zm-.729 2.957c.007.022.022.069.058.143.061.13.161.298.303.494.282.392.702.857 1.228 1.301C4.656 10.253 6.071 11 7.583 11c1.511 0 2.926-.747 3.989-1.645.527-.444.946-.91 1.229-1.3.141-.197.241-.365.303-.495.035-.074.05-.12.057-.143a1.015 1.015 0 00-.057-.144 3.322 3.322 0 00-.303-.494 7.524 7.524 0 00-1.229-1.3 8.276 8.276 0 00-.715-.542 3.417 3.417 0 11-6.548 0c-.253.17-.492.352-.716.541-.526.445-.946.91-1.228 1.301a3.323 3.323 0 00-.303.494 1.01 1.01 0 00-.058.144zm3.495-1.5a2.083 2.083 0 114.167 0 2.083 2.083 0 01-4.167 0z" fill="#424551"/></svg><svg viewBox="0 0 7 7" id="phone" xmlns="http://www.w3.org/2000/svg"><path d="M5.833 4.854a.212.212 0 00-.009-.073c-.006-.016-.033-.04-.082-.076a1.857 1.857 0 00-.184-.114 22.555 22.555 0 01-.217-.12 9.7 9.7 0 00-.337-.183 1.627 1.627 0 01-.087-.059.702.702 0 00-.114-.068.231.231 0 00-.095-.023c-.046 0-.101.031-.167.093-.065.063-.125.131-.18.206a1.777 1.777 0 01-.175.205c-.062.062-.113.093-.153.093a.223.223 0 01-.075-.016.714.714 0 01-.148-.073 1.85 1.85 0 01-.064-.039 3.43 3.43 0 01-.775-.576 3.632 3.632 0 01-.578-.777 1.85 1.85 0 01-.082-.141.715.715 0 01-.03-.071.223.223 0 01-.016-.075c0-.04.031-.09.093-.153.063-.062.131-.12.205-.175.075-.055.143-.115.206-.18.062-.066.093-.121.093-.167a.231.231 0 00-.023-.095.702.702 0 00-.068-.114 1.627 1.627 0 01-.06-.087 7.774 7.774 0 00-.182-.337c-.04-.07-.08-.142-.12-.217a1.857 1.857 0 00-.114-.184c-.035-.049-.06-.076-.076-.082a.212.212 0 00-.073-.01 1.2 1.2 0 00-.46.1c-.14.065-.261.208-.364.432a1.447 1.447 0 00-.155.594c0 .049.003.1.011.155a1.493 1.493 0 00.064.29l.045.134a15.652 15.652 0 01.108.287c.182.498.51.985.986 1.46.476.476.963.805 1.46.987l.138.05.15.058a2.496 2.496 0 00.285.086c.038.008.084.015.139.023.054.008.106.011.155.011.173 0 .371-.051.594-.155.224-.103.367-.224.431-.364a1.2 1.2 0 00.1-.46zM7 1.312v4.375c0 .362-.128.671-.385.928A1.264 1.264 0 015.687 7H1.313c-.361 0-.67-.128-.927-.385A1.264 1.264 0 010 5.687V1.313C0 .952.128.642.385.385S.951 0 1.312 0h4.375c.362 0 .671.128.928.385S7 .951 7 1.312z"/></svg><svg viewBox="0 0 16 16" id="pinterest" xmlns="http://www.w3.org/2000/svg"><path d="M8.2.666C4.153.666 2 3.243 2 6.051c0 1.303.733 2.927 1.907 3.443.334.15.29-.033.578-1.127a.258.258 0 00-.063-.255c-1.677-1.927-.327-5.888 3.54-5.888 5.595 0 4.55 7.689.973 7.689-.922 0-1.609-.719-1.391-1.608.263-1.06.779-2.198.779-2.96 0-1.925-2.887-1.64-2.887.91 0 .787.281 1.32.281 1.32s-.929 3.724-1.1 4.42c-.293 1.179.039 3.086.067 3.25.018.09.12.12.178.045.091-.12 1.214-1.71 1.528-2.859l.584-2.117c.31.555 1.202 1.02 2.153 1.02C11.956 11.333 14 8.863 14 5.8 13.99 2.864 11.459.666 8.2.666z"/></svg><svg viewBox="0 0 16 16" id="search" xmlns="http://www.w3.org/2000/svg"><path fill-rule="evenodd" clip-rule="evenodd" d="M7.25 2.166a5.083 5.083 0 100 10.167 5.083 5.083 0 000-10.167zM.835 7.25a6.417 6.417 0 1111.399 4.044l2.739 2.734a.667.667 0 11-.942.944l-2.74-2.736A6.417 6.417 0 01.834 7.25z" fill="#424551"/></svg><svg viewBox="0 0 22 22" id="upload" xmlns="http://www.w3.org/2000/svg"><path fill-rule="evenodd" clip-rule="evenodd" d="M10.293.543a1 1 0 011.414 0l4.5 4.5a1 1 0 01-1.414 1.414L12 3.664V16.25a1 1 0 11-2 0V3.664L7.207 6.457a1 1 0 01-1.414-1.414l4.5-4.5zM1.25 13a1 1 0 011 1v3.75a2 2 0 002 2h13.5a2 2 0 002-2V14a1 1 0 112 0v3.75a4 4 0 01-4 4H4.25a4 4 0 01-4-4V14a1 1 0 011-1z" fill="#9A9CA5"/></svg></svg>